<svg xmlns="http://www.w3.org/2000/svg" viewBox="0 0 800 500"><rect width="800" height="500" fill="#f5f5f4"/><g><path d="M 70 420 L 70 225.0 A 145.0 145.0 0 0 1 360 225.0 L 360 420 Z" fill="#c8102e" opacity="0.1"/><path d="M 120 250 q 22 -30 44 0 l 0 56 q -22 20 -44 0 z" fill="#ffffff" stroke="#c8102e" stroke-width="7" stroke-linejoin="round"/><path d="M 174 250 q 22 -30 44 0 l 0 56 q -22 20 -44 0 z" fill="#ffffff" stroke="#c8102e" stroke-width="7" stroke-linejoin="round"/><path d="M 228 250 q 22 -30 44 0 l 0 56 q -22 20 -44 0 z" fill="#ffffff" stroke="#c8102e" stroke-width="7" stroke-linejoin="round"/><path d="M 282 250 q 22 -30 44 0 l 0 56 q -22 20 -44 0 z" fill="#ffffff" stroke="#c8102e" stroke-width="7" stroke-linejoin="round"/><path d="M 336 250 q 22 -30 44 0 l 0 56 q -22 20 -44 0 z" fill="#ffffff" stroke="#c8102e" stroke-width="7" stroke-linejoin="round"/><path d="M 106 336 Q 220 380 336 332" fill="none" stroke="#c8102e" stroke-width="10" stroke-linecap="round" opacity=".6"/><text x="220" y="440" font-family="Inter,sans-serif" font-size="26" font-weight="700" fill="#17130f" text-anchor="middle">ALIGNERS</text></g><g><path d="M 440 420 L 440 225.0 A 145.0 145.0 0 0 1 730 225.0 L 730 420 Z" fill="#c8102e" opacity="0.1"/><path d="M 490 250 q 22 -30 44 0 l 0 56 q -22 20 -44 0 z" fill="#ffffff" stroke="#c8102e" stroke-width="7" stroke-linejoin="round"/><path d="M 544 250 q 22 -30 44 0 l 0 56 q -22 20 -44 0 z" fill="#ffffff" stroke="#c8102e" stroke-width="7" stroke-linejoin="round"/><path d="M 598 250 q 22 -30 44 0 l 0 56 q -22 20 -44 0 z" fill="#ffffff" stroke="#c8102e" stroke-width="7" stroke-linejoin="round"/><path d="M 652 250 q 22 -30 44 0 l 0 56 q -22 20 -44 0 z" fill="#ffffff" stroke="#c8102e" stroke-width="7" stroke-linejoin="round"/><path d="M 706 250 q 22 -30 44 0 l 0 56 q -22 20 -44 0 z" fill="#ffffff" stroke="#c8102e" stroke-width="7" stroke-linejoin="round"/><rect x="496" y="266" width="32" height="26" rx="6" fill="#c8102e"/><rect x="550" y="266" width="32" height="26" rx="6" fill="#c8102e"/><rect x="604" y="266" width="32" height="26" rx="6" fill="#c8102e"/><rect x="658" y="266" width="32" height="26" rx="6" fill="#c8102e"/><rect x="712" y="266" width="32" height="26" rx="6" fill="#c8102e"/><path d="M 484 280 l 274 0" stroke="#c8102e" stroke-width="8" stroke-linecap="round"/><text x="590" y="440" font-family="Inter,sans-serif" font-size="26" font-weight="700" fill="#17130f" text-anchor="middle">BRACES</text></g></svg>